<svg width="43" height="49" viewBox="0 0 43 49" fill="none" xmlns="http://www.w3.org/2000/svg">
<path d="M42.8746 48.9995H0V0H42.8746V48.9995Z" stroke="#E5E7EB"/>
<path d="M17.8103 4.98612C16.2025 3.74198 14.231 3.06248 12.2021 3.06248C7.14899 3.06248 3.06247 7.14901 3.06247 12.2021V12.7955C3.06247 14.3076 3.41657 15.791 4.08649 17.15L6.33551 21.6576C6.76618 22.5094 7.06286 23.4185 7.23512 24.3564L10.7474 44.0521C10.9388 45.124 11.8576 45.9088 12.939 45.947C14.0205 45.9853 14.9871 45.2388 15.2359 44.1861L18.0017 32.5773C18.3941 30.9791 19.8105 29.8593 21.4375 29.8593C23.0644 29.8593 24.4808 30.9791 24.8636 32.5677L27.6295 44.1765C27.8783 45.2388 28.8449 45.9757 29.9263 45.9375C31.0078 45.8992 31.9265 45.1144 32.1179 44.0425L35.6302 24.3469C35.8025 23.409 36.0992 22.4998 36.5298 21.648L38.7789 17.1404C39.4584 15.791 39.8029 14.298 39.8029 12.7859V12.5849C39.8029 7.32127 35.5345 3.05291 30.2709 3.05291C27.9644 3.05291 25.7345 3.8951 23.9927 5.40721L23.6865 5.67518L25.5527 7.12987C26.2226 7.64666 26.3375 8.61326 25.8207 9.28319C25.3039 9.95311 24.3373 10.068 23.6673 9.55115L21.3322 7.7328L17.7912 4.97655L17.8103 4.98612Z" fill="#0EA5E9"/>
</svg>
