<svg width="30" height="50" viewBox="0 0 30 50" fill="none" xmlns="http://www.w3.org/2000/svg">
<path d="M30 50H0V0H30V50Z" stroke="#E5E7EB"/>
<path d="M18 37H0V13H18V37Z" stroke="#E5E7EB"/>
<g clip-path="url(#clip0_7_176)">
<g clip-path="url(#clip1_7_176)">
<path d="M9.00001 18.5C6.96251 18.5 5.28751 19.425 4.00314 20.6156C2.80001 21.7344 1.96876 23.0625 1.54376 24C1.96876 24.9375 2.80001 26.2656 4.00001 27.3844C5.28751 28.575 6.96251 29.5 9.00001 29.5C11.0375 29.5 12.7125 28.575 13.9969 27.3844C15.2 26.2656 16.0313 24.9375 16.4563 24C16.0313 23.0625 15.2 21.7344 14 20.6156C12.7125 19.425 11.0375 18.5 9.00001 18.5ZM2.98126 19.5187C4.45314 18.15 6.47501 17 9.00001 17C11.525 17 13.5469 18.15 15.0188 19.5187C16.4813 20.8781 17.4594 22.5 17.925 23.6156C18.0281 23.8625 18.0281 24.1375 17.925 24.3844C17.4594 25.5 16.4813 27.125 15.0188 28.4812C13.5469 29.85 11.525 31 9.00001 31C6.47501 31 4.45314 29.85 2.98126 28.4812C1.51876 27.125 0.540637 25.5 0.0781372 24.3844C-0.0249878 24.1375 -0.0249878 23.8625 0.0781372 23.6156C0.540637 22.5 1.51876 20.875 2.98126 19.5187ZM9.00001 26.5C10.3813 26.5 11.5 25.3813 11.5 24C11.5 22.6187 10.3813 21.5 9.00001 21.5C8.97814 21.5 8.95939 21.5 8.93751 21.5C8.97814 21.6594 9.00001 21.8281 9.00001 22C9.00001 23.1031 8.10314 24 7.00001 24C6.82814 24 6.65939 23.9781 6.50001 23.9375C6.50001 23.9594 6.50001 23.9781 6.50001 24C6.50001 25.3813 7.61876 26.5 9.00001 26.5ZM9.00001 20C10.0609 20 11.0783 20.4214 11.8284 21.1716C12.5786 21.9217 13 22.9391 13 24C13 25.0609 12.5786 26.0783 11.8284 26.8284C11.0783 27.5786 10.0609 28 9.00001 28C7.93915 28 6.92173 27.5786 6.17159 26.8284C5.42144 26.0783 5.00001 25.0609 5.00001 24C5.00001 22.9391 5.42144 21.9217 6.17159 21.1716C6.92173 20.4214 7.93915 20 9.00001 20Z" fill="#9CA3AF"/>
</g>
</g>
<defs>
<clipPath id="clip0_7_176">
<rect width="18" height="16" fill="white" transform="translate(0 16)"/>
</clipPath>
<clipPath id="clip1_7_176">
<path d="M0 16H18V32H0V16Z" fill="white"/>
</clipPath>
</defs>
</svg>
